<?xml version="1.0" encoding="utf-8"?>

<!-- Uploaded to: SVG Repo, www.svgrepo.com, Generator: SVG Repo Mixer Tools -->
<svg fill="#000000" height="800px" width="800px" version="1.1" id="Layer_1" xmlns="http://www.w3.org/2000/svg" xmlns:xlink="http://www.w3.org/1999/xlink" 
	 viewBox="0 0 512 512" enable-background="new 0 0 512 512" xml:space="preserve">
<path d="M426.7,341.3c-29.1,0-54.8,14.7-70.2,36.9L167.4,278.1c1.9-7.1,3.3-14.4,3.3-22.1c0-7.7-1.3-15-3.3-22.1l189.1-100.1
	c15.4,22.3,41,36.9,70.2,36.9c47.1,0,85.3-38.2,85.3-85.3S473.8,0,426.7,0s-85.3,38.2-85.3,85.3c0,0.8,0.2,1.6,0.2,2.4l-199,105.4
	c-15.2-13.8-35.1-22.4-57.2-22.4C38.2,170.7,0,208.9,0,256s38.2,85.3,85.3,85.3c22.1,0,42-8.6,57.2-22.4l199,105.4
	c0,0.8-0.2,1.6-0.2,2.4c0,47.1,38.2,85.3,85.3,85.3s85.3-38.2,85.3-85.3S473.8,341.3,426.7,341.3z"/>
</svg>